Coordinates
version=1
nRows=17
nColumns=38
inDegrees=no

Units are S.I. units (second, meters, Newtons, ...)
If the header above contains a line with 'inDegrees', this indicates whether rotational values are in degrees (yes) or radians (no).

endheader
time	pelvis_tilt	pelvis_list	pelvis_rotation	pelvis_tx	pelvis_ty	pelvis_tz	hip_flexion_r	hip_adduction_r	hip_rotation_r	knee_angle_r	ankle_angle_r	subtalar_angle_r	mtp_angle_r	hip_flexion_l	hip_adduction_l	hip_rotation_l	knee_angle_l	ankle_angle_l	subtalar_angle_l	mtp_angle_l	lumbar_extension	lumbar_bending	lumbar_rotation	arm_flex_r	arm_add_r	arm_rot_r	elbow_flex_r	pro_sup_r	wrist_flex_r	wrist_dev_r	arm_flex_l	arm_add_l	arm_rot_l	elbow_flex_l	pro_sup_l	wrist_flex_l	wrist_dev_l
1.64	0.0821527	1.46996	-1.49513	0.676811	-0.270189	1.03886	0.359403	0.00457683	0.0769386	0.716026	-0.241732	0	0	-0.351969	-0.135021	-0.335486	0.657005	-0.382508	0	0	-0.34621	0.0547112	0.102945	0.226029	-0.493752	1.15612	0.590142	0.52159	0	0	0.16991	-0.243538	0.648524	0.42187	0.878266	0	0
1.65	0.0619565	1.46252	-1.47601	0.67676	-0.282727	1.04132	0.343446	0.00757327	0.0685595	0.720476	-0.248009	0	0	-0.338903	-0.148271	-0.333656	0.704499	-0.414385	0	0	-0.3542	0.0563938	0.105392	0.22788	-0.48985	1.16167	0.585472	0.515215	0	0	0.170359	-0.241493	0.641415	0.417514	0.883831	0	0
1.66	0.0510679	1.4549	-1.46601	0.676748	-0.294923	1.04395	0.32504	0.00903525	0.0604547	0.720963	-0.253518	0	0	-0.323346	-0.16098	-0.331115	0.754042	-0.449635	0	0	-0.362654	0.0573243	0.1077	0.231085	-0.486852	1.16938	0.581687	0.509182	0	0	0.171643	-0.240054	0.635598	0.413837	0.89038	0	0
1.67	0.0500658	1.4463	-1.46553	0.676837	-0.306697	1.0468	0.303439	0.0088577	0.0507456	0.719464	-0.256448	0	0	-0.307006	-0.17255	-0.327848	0.803949	-0.482834	0	0	-0.372859	0.0574689	0.10951	0.235561	-0.485081	1.17818	0.579705	0.501754	0	0	0.173508	-0.239373	0.629743	0.412171	0.896515	0	0
1.68	0.058936	1.43595	-1.47381	0.677103	-0.31818	1.04992	0.276599	0.00749786	0.0372346	0.7158	-0.254166	0	0	-0.291367	-0.182843	-0.324241	0.852574	-0.511594	0	0	-0.385145	0.0568287	0.110462	0.23999	-0.484416	1.18544	0.579827	0.493645	0	0	0.176127	-0.240015	0.626364	0.412664	0.900892	0	0
1.69	0.0739011	1.42508	-1.48749	0.677484	-0.329321	1.05316	0.247888	0.00437031	0.0231056	0.708841	-0.252414	0	0	-0.275543	-0.190812	-0.319445	0.898295	-0.537703	0	0	-0.398375	0.0554055	0.110926	0.244831	-0.484748	1.19301	0.581645	0.484143	0	0	0.179415	-0.241715	0.625223	0.414873	0.903599	0	0
1.7	0.0915172	1.41499	-1.50309	0.678036	-0.34012	1.05638	0.219324	0.000253274	0.00950448	0.698742	-0.252222	0	0	-0.258408	-0.196259	-0.312644	0.941913	-0.54704	0	0	-0.411191	0.0533512	0.110756	0.249639	-0.485067	1.19946	0.583362	0.47518	0	0	0.183465	-0.243914	0.626718	0.417223	0.904228	0	0
1.71	0.108367	1.40539	-1.51723	0.678804	-0.350614	1.0596	0.190415	-0.00380175	-0.00405113	0.685402	-0.253633	0	0	-0.240816	-0.200538	-0.306027	0.984128	-0.529949	0	0	-0.423927	0.0512194	0.110014	0.254809	-0.48561	1.20599	0.585057	0.465714	0	0	0.188061	-0.246321	0.629541	0.419693	0.903277	0	0
1.72	0.123894	1.39665	-1.53026	0.679556	-0.360913	1.0627	0.164407	-0.00744496	-0.0174035	0.675574	-0.254908	0	0	-0.222471	-0.203695	-0.301257	1.02373	-0.498982	0	0	-0.435635	0.0488323	0.109627	0.259618	-0.486128	1.21151	0.586657	0.457811	0	0	0.192942	-0.248943	0.633082	0.422618	0.900958	0	0
1.73	0.13988	1.38872	-1.54551	0.680085	-0.370863	1.06559	0.141332	-0.0107638	-0.0279222	0.66873	-0.256204	0	0	-0.203478	-0.205257	-0.299907	1.05864	-0.467039	0	0	-0.446637	0.0454426	0.110998	0.264313	-0.487724	1.21602	0.589921	0.450295	0	0	0.198337	-0.251928	0.63801	0.426482	0.897655	0	0
1.74	0.154048	1.38028	-1.55955	0.680796	-0.380587	1.06853	0.117307	-0.0138982	-0.0361981	0.660542	-0.258162	0	0	-0.185718	-0.206766	-0.30243	1.08672	-0.43955	0	0	-0.458052	0.042305	0.113249	0.268724	-0.491138	1.21961	0.595349	0.442693	0	0	0.204094	-0.254418	0.643822	0.430614	0.894109	0	0
1.75	0.164902	1.37162	-1.5711	0.681631	-0.390115	1.07147	0.0926609	-0.0165759	-0.0420655	0.650989	-0.260363	0	0	-0.16882	-0.208115	-0.306699	1.10861	-0.41582	0	0	-0.469655	0.0395839	0.116424	0.273038	-0.496003	1.22242	0.602397	0.435404	0	0	0.210117	-0.256419	0.64991	0.435002	0.889833	0	0
1.76	0.175039	1.3639	-1.58163	0.68264	-0.399694	1.07426	0.0686507	-0.0195759	-0.0491325	0.640989	-0.262371	0	0	-0.151388	-0.209134	-0.310733	1.12562	-0.394536	0	0	-0.479801	0.0369453	0.119479	0.276496	-0.500637	1.22427	0.608932	0.428763	0	0	0.215978	-0.258195	0.656206	0.438979	0.885935	0	0
1.77	0.18423	1.35828	-1.59001	0.683861	-0.409577	1.07672	0.0462473	-0.0229143	-0.0594558	0.63096	-0.263876	0	0	-0.131769	-0.211274	-0.315239	1.13921	-0.376492	0	0	-0.486427	0.0346048	0.121502	0.278065	-0.503398	1.22483	0.613027	0.424357	0	0	0.220673	-0.259637	0.661307	0.441766	0.885638	0	0
1.78	0.187928	1.35342	-1.59352	0.685153	-0.419685	1.07874	0.0246215	-0.0252348	-0.0712476	0.621285	-0.265104	0	0	-0.111998	-0.221024	-0.331749	1.15211	-0.360428	0	0	-0.490779	0.0334622	0.124583	0.278032	-0.507392	1.22497	0.61885	0.419802	0	0	0.224119	-0.26077	0.666039	0.44499	0.884647	0	0
1.79	0.201332	1.34972	-1.60641	0.686435	-0.429565	1.08077	0.00516009	-0.0300777	-0.0837883	0.612586	-0.266838	0	0	-0.092732	-0.222301	-0.338445	1.15413	-0.343079	0	0	-0.495059	0.03002	0.126386	0.278439	-0.509686	1.22384	0.622606	0.41532	0	0	0.228313	-0.262122	0.67016	0.447778	0.882623	0	0
1.8	0.216564	1.34738	-1.62174	0.687646	-0.439255	1.08261	-0.0115947	-0.0349537	-0.0951974	0.605724	-0.26793	0	0	-0.0732226	-0.221284	-0.343298	1.14917	-0.329611	0	0	-0.49859	0.025822	0.128113	0.279391	-0.51081	1.22258	0.624617	0.41185	0	0	0.2327	-0.263395	0.673987	0.449943	0.882231	0	0
